<svg width="15" height="15" viewBox="0 0 15 15" fill="none" xmlns="http://www.w3.org/2000/svg">
<path d="M1.25 1.875V11.25C1.25 12.2781 2.09689 13.125 3.125 13.125H11.875C12.9031 13.125 13.75 12.2781 13.75 11.25V4.375H12.5V11.25C12.5 11.6031 12.2281 11.875 11.875 11.875C11.5219 11.875 11.25 11.6031 11.25 11.25V1.875H1.25ZM2.5 3.125H10V11.25C10 11.4927 10.1744 11.6612 10.26 11.875H3.125C2.77186 11.875 2.5 11.6031 2.5 11.25V3.125ZM3.75 4.375V6.25H8.75V4.375H3.75ZM3.75 7.5V8.75H8.75V7.5H3.75ZM3.75 10V11.25H8.75V10H3.75Z" fill="#FAFBFC"/>
</svg>
